<svg width="72" height="56" viewBox="0 0 72 56" fill="none" xmlns="http://www.w3.org/2000/svg">
<path d="M0.88 56V55.15L4.195 54.13C6.34833 53.3933 7.425 51.9483 7.425 49.795V8.655L0.54 9.59V8.485C3.88333 7.805 7.085 6.84166 10.145 5.595C13.2617 4.34833 16.18 2.90333 18.9 1.26L20.005 2.025L19.665 14.18V49.795C19.665 52.005 20.7417 53.4217 22.895 54.045L26.38 55.15V56H0.88ZM35.7818 16.39L36.3768 4.32C38.0768 3.35667 40.1735 2.535 42.6668 1.855C45.2168 1.175 48.0785 0.834996 51.2518 0.834996C55.7851 0.834996 59.4401 1.48666 62.2168 2.79C64.9935 4.03666 67.0335 5.765 68.3368 7.975C69.6401 10.185 70.2918 12.6783 70.2918 15.455C70.2918 19.365 68.3935 23.19 64.5968 26.93C60.8001 30.6133 55.6151 34.6933 49.0418 39.17C47.7951 40.0767 46.3218 41.1817 44.6218 42.485C42.9218 43.7883 41.3351 45.0633 39.8618 46.31H71.7368V56H34.3368V48.86C36.3768 46.8767 38.3601 44.9217 40.2868 42.995C42.2701 41.0117 44.1401 39.1417 45.8968 37.385C49.9768 33.1917 53.0085 29.48 54.9918 26.25C57.0318 22.9633 58.0518 19.45 58.0518 15.71C58.0518 11.8 57.3435 8.655 55.9268 6.275C54.5101 3.83833 52.3851 2.62 49.5518 2.62C47.7951 2.62 46.1518 3.07333 44.6218 3.98C43.1485 4.83 41.8451 6.33167 40.7118 8.485L36.6318 16.39H35.7818Z" fill="#CDA274"/>
</svg>
