<svg width="73" height="57" viewBox="0 0 73 57" fill="none" xmlns="http://www.w3.org/2000/svg">
<path d="M0.38 55V54.15L3.695 53.13C5.84833 52.3933 6.925 50.9483 6.925 48.795V7.655L0.04 8.59V7.485C3.38333 6.805 6.585 5.84166 9.645 4.595C12.7617 3.34833 15.68 1.90333 18.4 0.259995L19.505 1.025L19.165 13.18V48.795C19.165 51.005 20.2417 52.4217 22.395 53.045L25.88 54.15V55H0.38ZM50.1568 56.275C46.8701 56.275 43.9235 55.9633 41.3168 55.34C38.7668 54.7733 36.5001 53.81 34.5168 52.45L35.1118 41.74H35.9618L39.8718 48.71C41.0051 50.75 42.3935 52.2517 44.0368 53.215C45.6801 54.1217 47.4935 54.575 49.4768 54.575C55.9935 54.575 59.2518 49.6167 59.2518 39.7C59.2518 35.2233 58.3735 31.8233 56.6168 29.5C54.9168 27.1767 52.3668 26.015 48.9668 26.015C47.3801 26.015 45.7935 26.2417 44.2068 26.695C42.6768 27.0917 41.2601 27.63 39.9568 28.31L38.4268 27.375L40.2968 1.11H70.0468V10.8H41.9968L40.8068 25.505C42.1101 24.5417 43.8668 23.635 46.0768 22.785C48.2868 21.935 50.6101 21.51 53.0468 21.51C56.7301 21.51 59.9885 22.1617 62.8218 23.465C65.7118 24.7683 67.9501 26.695 69.5368 29.245C71.1801 31.7383 72.0018 34.8267 72.0018 38.51C72.0018 42.3067 71.0385 45.5367 69.1118 48.2C67.2418 50.8633 64.6635 52.875 61.3768 54.235C58.0901 55.595 54.3501 56.275 50.1568 56.275Z" fill="#CDA274"/>
</svg>
