<svg width="86" height="58" viewBox="0 0 86 58" fill="none" xmlns="http://www.w3.org/2000/svg">
<path d="M0.88 44.185C0.88 41.295 2.04167 38.745 4.365 36.535C6.68833 34.325 9.55 32.54 12.95 31.18C5.75333 27.44 2.155 22.34 2.155 15.88C2.155 12.7633 2.94833 10.1 4.535 7.89C6.12167 5.62333 8.275 3.895 10.995 2.705C13.7717 1.45833 16.86 0.834996 20.26 0.834996C23.7167 0.834996 26.6067 1.40166 28.93 2.535C31.2533 3.61167 32.9817 5.085 34.115 6.955C35.305 8.76833 35.9 10.78 35.9 12.99C35.9 14.69 35.4467 16.3333 34.54 17.92C33.6333 19.5067 32.415 20.9517 30.885 22.255C29.4117 23.5583 27.7967 24.635 26.04 25.485C30.29 27.5817 33.4633 29.9617 35.56 32.625C37.7133 35.2317 38.79 38.3767 38.79 42.06C38.79 46.65 37.0333 50.3333 33.52 53.11C30.0067 55.8867 25.3033 57.275 19.41 57.275C13.4033 57.275 8.81333 56.1133 5.64 53.79C2.46667 51.41 0.88 48.2083 0.88 44.185ZM12.1 11.035C12.1 12.735 12.4117 14.3217 13.035 15.795C13.6583 17.2117 14.8483 18.6567 16.605 20.13C18.4183 21.5467 21.025 23.0767 24.425 24.72C26.125 22.7367 27.2017 20.8383 27.655 19.025C28.1083 17.2117 28.335 15.455 28.335 13.755C28.335 9.73167 27.57 6.87 26.04 5.17C24.51 3.41333 22.4983 2.535 20.005 2.535C17.795 2.535 15.925 3.3 14.395 4.83C12.865 6.30333 12.1 8.37166 12.1 11.035ZM9.805 43.335C9.805 46.9617 10.7117 49.9083 12.525 52.175C14.3383 54.4417 16.775 55.575 19.835 55.575C22.6683 55.575 24.8217 54.6683 26.295 52.855C27.7683 50.985 28.505 48.5767 28.505 45.63C28.505 43.8167 28.1083 42.2017 27.315 40.785C26.5217 39.3117 25.1333 37.895 23.15 36.535C21.2233 35.175 18.5317 33.73 15.075 32.2C14.7917 32.0867 14.5083 31.945 14.225 31.775C12.9783 32.965 12.0433 34.0983 11.42 35.175C10.7967 36.195 10.3717 37.3567 10.145 38.66C9.91833 39.9067 9.805 41.465 9.805 43.335ZM63.606 57.275C60.3194 57.275 57.3727 56.9633 54.766 56.34C52.216 55.7733 49.9494 54.81 47.966 53.45L48.561 42.74H49.411L53.321 49.71C54.4544 51.75 55.8427 53.2517 57.486 54.215C59.1294 55.1217 60.9427 55.575 62.926 55.575C69.4427 55.575 72.701 50.6167 72.701 40.7C72.701 36.2233 71.8227 32.8233 70.066 30.5C68.366 28.1767 65.816 27.015 62.416 27.015C60.8294 27.015 59.2427 27.2417 57.656 27.695C56.126 28.0917 54.7093 28.63 53.406 29.31L51.876 28.375L53.746 2.11H83.496V11.8H55.446L54.256 26.505C55.5594 25.5417 57.316 24.635 59.526 23.785C61.736 22.935 64.0594 22.51 66.496 22.51C70.1794 22.51 73.4377 23.1617 76.271 24.465C79.161 25.7683 81.3994 27.695 82.986 30.245C84.6294 32.7383 85.451 35.8267 85.451 39.51C85.451 43.3067 84.4877 46.5367 82.561 49.2C80.691 51.8633 78.1127 53.875 74.826 55.235C71.5394 56.595 67.7994 57.275 63.606 57.275Z" fill="#CDA274"/>
</svg>
