<svg width="88" height="58" viewBox="0 0 88 58" fill="none" xmlns="http://www.w3.org/2000/svg">
<path d="M40 23.615C40 29.3383 38.6683 34.5517 36.005 39.255C33.3417 43.9017 29.4317 47.8117 24.275 50.985C19.175 54.1583 12.9133 56.3967 5.49 57.7L5.15 56.17C10.1933 55.0933 14.245 53.535 17.305 51.495C20.365 49.455 22.66 46.8767 24.19 43.76C25.7767 40.6433 26.7967 36.9033 27.25 32.54C26.06 33.3333 24.5867 33.985 22.83 34.495C21.0733 34.9483 19.09 35.175 16.88 35.175C13.7067 35.175 10.845 34.5517 8.295 33.305C5.80167 32.0017 3.81833 30.1317 2.345 27.695C0.871667 25.2583 0.135 22.3117 0.135 18.855C0.135 15.1717 1.04167 11.9983 2.855 9.335C4.66833 6.615 7.04833 4.51833 9.995 3.045C12.9983 1.57166 16.285 0.834996 19.855 0.834996C26.315 0.834996 31.2733 2.875 34.73 6.955C38.2433 10.9783 40 16.5317 40 23.615ZM12.12 17.75C12.12 22.9067 12.8283 26.6467 14.245 28.97C15.6617 31.2367 17.985 32.37 21.215 32.37C23.595 32.37 25.6633 31.86 27.42 30.84C27.5333 29.5933 27.6183 28.3467 27.675 27.1C27.7317 25.7967 27.76 24.4367 27.76 23.02C27.76 17.8067 27.505 13.7267 26.995 10.78C26.485 7.77666 25.6633 5.65166 24.53 4.405C23.3967 3.15833 21.8667 2.535 19.94 2.535C17.3333 2.535 15.3783 3.725 14.075 6.105C12.7717 8.485 12.12 12.3667 12.12 17.75ZM65.1793 57.275C61.8926 57.275 58.9459 56.9633 56.3393 56.34C53.7893 55.7733 51.5226 54.81 49.5393 53.45L50.1343 42.74H50.9843L54.8943 49.71C56.0276 51.75 57.4159 53.2517 59.0593 54.215C60.7026 55.1217 62.5159 55.575 64.4993 55.575C71.0159 55.575 74.2743 50.6167 74.2743 40.7C74.2743 36.2233 73.3959 32.8233 71.6393 30.5C69.9393 28.1767 67.3893 27.015 63.9893 27.015C62.4026 27.015 60.8159 27.2417 59.2293 27.695C57.6993 28.0917 56.2826 28.63 54.9793 29.31L53.4493 28.375L55.3193 2.11H85.0693V11.8H57.0193L55.8293 26.505C57.1326 25.5417 58.8893 24.635 61.0993 23.785C63.3093 22.935 65.6326 22.51 68.0693 22.51C71.7526 22.51 75.0109 23.1617 77.8443 24.465C80.7343 25.7683 82.9726 27.695 84.5593 30.245C86.2026 32.7383 87.0243 35.8267 87.0243 39.51C87.0243 43.3067 86.0609 46.5367 84.1343 49.2C82.2643 51.8633 79.6859 53.875 76.3993 55.235C73.1126 56.595 69.3726 57.275 65.1793 57.275Z" fill="#CDA274"/>
</svg>
