<svg width="131" height="28" viewBox="0 0 131 28" fill="none" xmlns="http://www.w3.org/2000/svg">
<path d="M0.38 27V26.6L1.18 26.28C1.71333 26.0933 2.06 25.84 2.22 25.52C2.40667 25.2 2.5 24.7733 2.5 24.24V3.36C2.5 2.82667 2.42 2.4 2.26 2.08C2.1 1.76 1.74 1.50667 1.18 1.32L0.38 0.999999V0.599999H10.66V0.999999L9.86 1.32C9.32667 1.50667 8.96667 1.76 8.78 2.08C8.62 2.4 8.54 2.82667 8.54 3.36V24.24C8.54 24.7733 8.62 25.2 8.78 25.52C8.96667 25.8133 9.32667 26.0667 9.86 26.28L10.66 26.6V27H0.38ZM12.3313 27V26.6L12.8913 26.44C13.8246 26.1733 14.2913 25.52 14.2913 24.48V11.96C14.2913 11.3733 14.1979 10.9467 14.0113 10.68C13.8246 10.3867 13.4646 10.1867 12.9313 10.08L12.3313 9.92V9.52L19.1713 7.2L19.5713 7.6L19.8913 10C20.8246 9.17333 21.8779 8.49333 23.0513 7.96C24.2246 7.42667 25.3846 7.16 26.5313 7.16C28.2913 7.16 29.6379 7.64 30.5713 8.6C31.5313 9.56 32.0113 11.0267 32.0113 13V24.52C32.0113 25.56 32.5179 26.2133 33.5313 26.48L33.8913 26.6V27H24.4513V26.6L24.9713 26.44C25.9046 26.1467 26.3713 25.4933 26.3713 24.48V11.72C26.3713 10.0133 25.5179 9.16 23.8113 9.16C22.6379 9.16 21.3579 9.74667 19.9713 10.92V24.52C19.9713 25.56 20.4379 26.2133 21.3713 26.48L21.7313 26.6V27H12.3313ZM42.8609 27.6C41.1543 27.6 39.8209 27.1733 38.8609 26.32C37.9276 25.4667 37.4609 24.1067 37.4609 22.24V8.56H34.7009V8.16L35.6609 8C36.4876 7.81333 37.1943 7.54667 37.7809 7.2C38.3943 6.85333 38.9943 6.38667 39.5809 5.8L42.8609 2.16H43.2609L43.1409 7.76H47.6209V8.56H43.1009V22.96C43.1009 23.8933 43.3009 24.6 43.7009 25.08C44.1276 25.56 44.6609 25.8 45.3009 25.8C45.8609 25.8 46.3543 25.6667 46.7809 25.4C47.2076 25.1067 47.6343 24.72 48.0609 24.24L48.4609 24.64C47.9276 25.5467 47.1943 26.2667 46.2609 26.8C45.3276 27.3333 44.1943 27.6 42.8609 27.6ZM59.6369 7.16C61.3702 7.16 62.8502 7.52 64.0769 8.24C65.3035 8.93333 66.2369 9.89333 66.8769 11.12C67.5435 12.32 67.8769 13.6933 67.8769 15.24C67.8769 15.5333 67.8635 15.84 67.8369 16.16C67.8102 16.4533 67.7569 16.72 67.6769 16.96H55.7569C55.7835 19.84 56.2902 21.92 57.2769 23.2C58.2902 24.4533 59.7835 25.08 61.7569 25.08C63.0902 25.08 64.1702 24.8667 64.9969 24.44C65.8235 24.0133 66.5969 23.3867 67.3169 22.56L67.7169 22.92C66.8902 24.3867 65.7835 25.5333 64.3969 26.36C63.0369 27.1867 61.3969 27.6 59.4769 27.6C57.5835 27.6 55.9035 27.2 54.4369 26.4C52.9702 25.5733 51.8235 24.4 50.9969 22.88C50.1702 21.36 49.7569 19.5467 49.7569 17.44C49.7569 15.2533 50.2369 13.4 51.1969 11.88C52.1569 10.3333 53.3835 9.16 54.8769 8.36C56.3969 7.56 57.9835 7.16 59.6369 7.16ZM59.5169 7.96C58.7435 7.96 58.0769 8.2 57.5169 8.68C56.9835 9.13333 56.5569 9.96 56.2369 11.16C55.9435 12.3333 55.7835 14 55.7569 16.16H62.5969C62.8635 13.2533 62.7569 11.16 62.2769 9.88C61.7969 8.6 60.8769 7.96 59.5169 7.96ZM69.8703 27V26.6L70.4703 26.44C71.0036 26.28 71.3636 26.04 71.5503 25.72C71.7636 25.4 71.8703 24.9867 71.8703 24.48V11.96C71.8703 11.3733 71.7636 10.9467 71.5503 10.68C71.3636 10.3867 71.0036 10.1867 70.4703 10.08L69.8703 9.92V9.52L76.7503 7.2L77.1503 7.6L77.5103 11.04V11.36C77.8836 10.6133 78.3636 9.93333 78.9503 9.32C79.5636 8.68 80.2303 8.16 80.9503 7.76C81.697 7.36 82.4303 7.16 83.1503 7.16C84.1636 7.16 84.937 7.44 85.4703 8C86.0036 8.56 86.2703 9.26667 86.2703 10.12C86.2703 11.0267 86.0036 11.7333 85.4703 12.24C84.9636 12.72 84.3503 12.96 83.6303 12.96C82.5103 12.96 81.5236 12.4 80.6703 11.28L80.5903 11.2C80.3236 10.8267 80.017 10.6267 79.6703 10.6C79.3236 10.5467 79.0036 10.7067 78.7103 11.08C78.4436 11.32 78.217 11.6133 78.0303 11.96C77.8703 12.28 77.7103 12.6533 77.5503 13.08V24.24C77.5503 25.3067 78.017 25.9733 78.9503 26.24L80.2303 26.6V27H69.8703ZM87.5266 27V26.6L88.0866 26.44C89.0199 26.1733 89.4866 25.52 89.4866 24.48V11.96C89.4866 11.3733 89.3932 10.9467 89.2066 10.68C89.0199 10.3867 88.6599 10.1867 88.1266 10.08L87.5266 9.92V9.52L94.3666 7.2L94.7666 7.6L95.0866 10C96.0199 9.17333 97.0732 8.49333 98.2466 7.96C99.4199 7.42667 100.58 7.16 101.727 7.16C103.487 7.16 104.833 7.64 105.767 8.6C106.727 9.56 107.207 11.0267 107.207 13V24.52C107.207 25.56 107.713 26.2133 108.727 26.48L109.087 26.6V27H99.6466V26.6L100.167 26.44C101.1 26.1467 101.567 25.4933 101.567 24.48V11.72C101.567 10.0133 100.713 9.16 99.0066 9.16C97.8332 9.16 96.5532 9.74667 95.1666 10.92V24.52C95.1666 25.56 95.6332 26.2133 96.5666 26.48L96.9266 26.6V27H87.5266ZM120.772 27.6C118.745 27.6 116.985 27.1867 115.492 26.36C113.998 25.5067 112.838 24.3067 112.012 22.76C111.212 21.2133 110.812 19.4 110.812 17.32C110.812 15.24 111.238 13.44 112.092 11.92C112.972 10.4 114.158 9.22667 115.652 8.4C117.172 7.57333 118.878 7.16 120.772 7.16C122.665 7.16 124.358 7.57333 125.852 8.4C127.345 9.2 128.518 10.36 129.372 11.88C130.252 13.4 130.692 15.2133 130.692 17.32C130.692 19.4267 130.278 21.2533 129.452 22.8C128.652 24.32 127.505 25.5067 126.012 26.36C124.545 27.1867 122.798 27.6 120.772 27.6ZM120.772 26.8C121.705 26.8 122.452 26.5333 123.012 26C123.572 25.4667 123.972 24.52 124.212 23.16C124.478 21.8 124.612 19.88 124.612 17.4C124.612 14.8933 124.478 12.96 124.212 11.6C123.972 10.24 123.572 9.29333 123.012 8.76C122.452 8.22667 121.705 7.96 120.772 7.96C119.838 7.96 119.078 8.22667 118.492 8.76C117.932 9.29333 117.518 10.24 117.252 11.6C117.012 12.96 116.892 14.8933 116.892 17.4C116.892 19.88 117.012 21.8 117.252 23.16C117.518 24.52 117.932 25.4667 118.492 26C119.078 26.5333 119.838 26.8 120.772 26.8Z" fill="#292F36"/>
</svg>
